<?xml version="1.0" encoding="UTF-8" standalone="no"?>
<svg
   xmlns:dc="http://purl.org/dc/elements/1.1/"
   xmlns:cc="http://creativecommons.org/ns#"
   xmlns:rdf="http://www.w3.org/1999/02/22-rdf-syntax-ns#"
   xmlns:svg="http://www.w3.org/2000/svg"
   xmlns="http://www.w3.org/2000/svg"
   version="1.1"
   id="svg2"
   viewBox="0 0 1145.6174 631.59038"
   height="178.24884mm"
   width="323.3187mm">
  <defs
     id="defs4" />
  <metadata
     id="metadata7">
    <rdf:RDF>
      <cc:Work
         rdf:about="">
        <dc:format>image/svg+xml</dc:format>
        <dc:type
           rdf:resource="http://purl.org/dc/dcmitype/StillImage" />
        <dc:title></dc:title>
      </cc:Work>
    </rdf:RDF>
  </metadata>
  <g
     transform="translate(1217.367,-4038.5907)"
     id="layer1">
    <path
       id="path3471"
       d="m -191.42856,4218.5907 c 0,215.8997 -263.78903,280 -461.42856,280 -197.63953,0 -461.42858,-67.2648 -461.42858,-280 0,-47.739 48.6147,-93.5227 135.14929,-127.2793 86.53466,-33.7565 203.90082,-52.7207 326.27929,-52.7207 122.37846,0 239.74462,18.9642 326.27926,52.7207 86.53464,33.7566 135.1493,79.5403 135.1493,127.2793 z"
       style="color:#000000;clip-rule:nonzero;display:inline;overflow:visible;visibility:visible;opacity:1;isolation:auto;mix-blend-mode:normal;color-interpolation:sRGB;color-interpolation-filters:linearRGB;solid-color:#000000;solid-opacity:1;fill:#000000;fill-opacity:1;fill-rule:nonzero;stroke:none;stroke-width:0.5;stroke-linecap:square;stroke-linejoin:miter;stroke-miterlimit:4;stroke-dasharray:none;stroke-dashoffset:0;stroke-opacity:1;color-rendering:auto;image-rendering:auto;shape-rendering:auto;text-rendering:auto;enable-background:accumulate" />
    <ellipse
       ry="145.68456"
       rx="417.48297"
       cy="4211.418"
       cx="-652.85712"
       id="ellipse3473"
       style="color:#000000;clip-rule:nonzero;display:inline;overflow:visible;visibility:visible;opacity:1;isolation:auto;mix-blend-mode:normal;color-interpolation:sRGB;color-interpolation-filters:linearRGB;solid-color:#000000;solid-opacity:1;fill:#ffff00;fill-opacity:1;fill-rule:nonzero;stroke:none;stroke-width:0.5;stroke-linecap:square;stroke-linejoin:miter;stroke-miterlimit:4;stroke-dasharray:none;stroke-dashoffset:0;stroke-opacity:1;color-rendering:auto;image-rendering:auto;shape-rendering:auto;text-rendering:auto;enable-background:accumulate" />
    <path
       id="path3475"
       d="m -745.64094,4266.5301 24.237,-140.7679 204.28326,70.3839 z"
       style="color:#000000;clip-rule:nonzero;display:inline;overflow:visible;visibility:visible;opacity:1;isolation:auto;mix-blend-mode:normal;color-interpolation:sRGB;color-interpolation-filters:linearRGB;solid-color:#000000;solid-opacity:1;fill:#000000;fill-opacity:1;fill-rule:nonzero;stroke:none;stroke-width:0.49999997;stroke-linecap:square;stroke-linejoin:miter;stroke-miterlimit:4;stroke-dasharray:none;stroke-dashoffset:0;stroke-opacity:1;color-rendering:auto;image-rendering:auto;shape-rendering:auto;text-rendering:auto;enable-background:accumulate" />
    <path
       id="path3477"
       d="m -233.33997,4382.6359 c -11.18474,11.2346 -16.44028,24.8003 -15.31093,42.3173 0.62484,8.7786 2.68254,17.913 6.32693,27.3992 3.64693,9.5046 8.91061,19.4013 15.9249,29.5505 7.52923,10.8943 15.255,19.7304 23.48031,26.3262 8.03354,6.4343 16.49934,10.6762 25.45898,12.4521 18.59267,3.153 37.76834,-3.1851 55.03622,-19.9806 1.90221,-1.8502 3.67766,-3.7453 5.32568,-5.6793 12.13388,-14.2294 17.11702,-30.4665 15.50597,-46.9598 l 12.082398,9.273 c 6.22701,-8.1309 12.160176,-16.598 17.759951,-25.3958 l -63.075649,-39.9341 c -10.57835,16.7054 -23.04709,32.1679 -36.82954,46.3089 l 13.36749,13.027 c 7.87175,-8.0682 15.35479,-16.5733 22.3589,-25.5029 17.82583,20.2267 19.22214,39.4629 5.19404,55.7225 l 0,1e-4 c -0.88477,1.026 -1.82847,2.035 -2.8298,3.0252 -18.76077,18.5533 -41.56628,11.5175 -68.44098,-21.4972 -26.92238,-33.0733 -29.92948,-54.5245 -17.69349,-66.7945 0.43525,-0.4364 0.8763,-0.8522 1.32384,-1.2473 l 0,0 c 8.8413,-7.8071 21.07632,-7.6572 39.74187,2.1126 5.54395,-6.8383 10.69908,-13.9206 15.39219,-21.2367 -15.36723,-6.3152 -28.79782,-8.8905 -39.78415,-8.0528 -11.17343,0.8519 -20.3663,5.171 -29.11601,13.5877 l 0,0 c -0.3999,0.3845 -0.79953,0.7774 -1.19912,1.1787 z m -204.85517,104.5558 c -8.07019,2.0564 -12.80544,13.2984 -10.26862,22.3478 2.19296,7.8227 12.67075,9.3256 14.20349,15.5037 2.09003,8.4245 -3.58153,8.1465 -0.0736,24.3056 6.74791,31.0151 13.41769,62.0486 20.00981,93.1002 9.93858,-2.3684 19.86254,-4.9112 29.76393,-7.6365 -9.14262,-30.3888 -18.20355,-60.8017 -27.18327,-91.2382 -4.66716,-15.8193 -9.52673,-12.9291 -11.72884,-21.2853 -2.35438,-8.934 8.24115,-9.6332 4.97882,-20.3982 -2.73086,-9.8143 -11.62648,-16.7568 -19.70172,-14.6991 z m -646.63456,-118.7152 -16.4971,9.6094 c 2.0779,3.6117 4.3568,7.1741 6.8136,10.6844 l -94.453,65.8897 c -4.1718,-5.9916 -8.1468,-12.19 -11.902,-18.5921 l -16.4988,9.6105 c 12.7965,21.7805 27.8389,41.2516 44.3826,58.3223 1.1052,1.1417 2.2154,2.274 3.3306,3.397 20.8477,20.994 43.4377,30.0223 63.4022,28.801 1.2726,-0.078 2.537,-0.1957 3.7927,-0.354 18.8021,-2.2629 34.4228,-15.6016 48.0522,-37.4479 13.242,-21.2253 17.6208,-40.5892 15.6331,-56.7453 -0.057,-0.3977 -0.1175,-0.7942 -0.1812,-1.1894 -2.572,-16.064 -10.2838,-29.172 -22.4362,-41.7004 -0.3597,-0.3709 -0.717,-0.7426 -1.0718,-1.1153 -8.9522,-9.4242 -16.6561,-19.1778 -22.3669,-29.1699 z m 91.75378,79.3268 -71.63048,135.6587 c 4.0668,2.1463 8.1447,4.2287 12.2305,6.2491 5.7054,2.8269 11.4329,5.5508 17.1782,8.1756 l 29.0506,-63.6071 c 7.39842,3.3791 14.87048,6.5863 22.40277,9.634 4.80213,29.0043 10.4073,54.6764 17.48469,80.7899 11.71175,3.8495 23.46754,7.4075 35.25291,10.6908 -9.88543,-28.135 -18.22803,-56.3822 -24.77122,-84.6012 26.8381,2.7852 43.0924,-6.8919 48.51669,-25.6974 3.87196,-13.4236 0.22938,-25.7385 -10.04153,-36.6985 -3.73045,-4.0834 -8.21932,-7.7655 -13.40682,-11.1111 -5.77622,-3.7243 -12.38377,-6.9975 -19.775,-9.9472 -11.56897,-4.617 -22.81343,-9.5927 -33.65756,-14.9975 -2.97862,-1.4887 -5.9242,-3.0007 -8.83375,-4.5381 z m 121.85727,44.7691 -25.44162,102.8688 c -8.08945,32.7083 8.40878,56.2017 52.72942,63.7836 7.34787,1.257 14.21191,1.8049 20.53845,1.65 13.42126,-0.3098 24.46067,-3.7554 32.81803,-10.3782 10.45585,-7.8316 16.09402,-19.1161 17.64195,-33.6178 l 11.24687,-105.3654 c -8.85302,-0.9441 -17.68278,-2.0185 -26.48512,-3.2261 l -14.37995,104.9854 c -1.92671,14.0665 -7.75438,22.6162 -17.58849,26.0524 -5.59371,1.9611 -12.47027,2.243 -20.52333,0.8642 -22.36473,-3.8291 -31.27882,-16.3215 -26.72596,-38.0637 l 21.72527,-103.7492 c -8.5866,-1.7925 -17.1083,-3.7235 -25.55552,-5.804 z m 135.03631,21.2988 -12.0249,152.9092 c 9.48673,0.7478 18.97614,1.3702 28.46503,1.8697 l 5.1957,-98.9805 c 6.11257,33.4049 13.00315,66.7605 20.64784,100.0387 9.37647,0.275 18.74959,0.4318 28.11625,0.4728 4.27881,-15.2784 8.38843,-30.5805 12.33097,-45.9026 4.62797,-17.984 9.02707,-35.998 13.19368,-54.0373 l 1.91061,99.7404 c 9.0397,-0.1715 18.08282,-0.4509 27.12663,-0.8399 l -6.5884,-153.2526 c -10.73537,0.4613 -21.48857,0.7472 -32.25248,0.8623 -1.29626,5.7913 -2.61613,11.58 -3.95951,17.366 -7.63643,32.8832 -16.02369,65.6865 -25.182,98.3765 -9.56949,-38.7836 -18.06607,-77.6936 -25.44739,-116.6811 -10.53288,-0.4736 -21.04584,-1.1191 -31.53203,-1.9416 z m 217.09561,-7.3958 16.89114,112.6459 c 2.44195,16.2852 -5.6487,25.0298 -23.09758,27.1898 -19.39389,2.4007 -30.38895,-5.1482 -32.64599,-25.5567 -10.43829,0.994 -20.8883,1.8308 -31.34524,2.5135 4.60841,32.3247 26.45204,47.7929 66.44136,42.8422 17.82366,-2.2066 31.23053,-7.4154 39.95247,-14.9854 10.71503,-9.2907 14.37761,-22.0633 11.47859,-37.9708 l -20.27394,-111.2465 c -5.06661,0.9271 -10.15008,1.8122 -15.2487,2.6571 -4.04457,0.665 -8.09541,1.3019 -12.15211,1.9109 z m 134.36162,-32.0656 49.86004,145.0201 c 4.80022,-1.6468 9.59181,-3.3408 14.37382,-5.0829 5.29728,-1.9133 10.5907,-3.8982 15.87654,-5.9572 l -42.27371,-107.9361 c 31.44599,29.1593 65.77106,56.3947 103.65332,80.2577 11.0814,-5.7392 22.06129,-11.8653 32.90308,-18.4038 l -79.0963,-131.271 c -6.61104,3.9784 -13.40842,7.7831 -20.36963,11.4296 l 52.9197,100.3565 c -36.03574,-23.7273 -68.72767,-50.6278 -98.7131,-79.3399 -5.80139,2.3447 -11.67161,4.6155 -17.60046,6.8193 -3.82425,1.4066 -7.66899,2.7755 -11.5333,4.1077 z m -696.13289,-68.5384 c 1.5115,1.6857 3.0587,3.3569 4.6384,5.0131 0.1721,0.1801 0.3446,0.36 0.5176,0.5396 8.6293,8.9622 13.2543,17.6937 13.558,28.2292 0.3662,11.4193 -4.6323,26.1086 -16.5734,42.2268 -12.2194,16.4939 -24.4721,26.0114 -37.787,28.0766 -13.1326,2.0368 -27.1866,-3.4153 -40.357,-16.7735 -0.7913,-0.8024 -1.5795,-1.6098 -2.3648,-2.4219 -2.4898,-2.5729 -4.9422,-5.2004 -7.3541,-7.882 z m 101.34511,69.8728 c 6.1706,2.8174 12.43713,5.5118 18.78825,8.0938 10.61993,4.3174 18.10449,8.7632 22.72764,13.823 5.32258,5.8216 6.71838,12.3653 4.27273,19.6875 -2.34006,7.006 -7.48438,11.2277 -15.70599,12.7238 -2.02638,0.3695 -4.23777,0.5719 -6.63194,0.6051 -6.4723,0.3856 -13.86258,-1.2542 -21.61368,-4.4037 -7.00839,-2.8477 -13.9517,-5.834 -20.8181,-8.9698 z"
       style="color:#000000;font-style:normal;font-variant:normal;font-weight:normal;font-stretch:normal;font-size:medium;line-height:125%;font-family:BokutachinoGothic;-inkscape-font-specification:BokutachinoGothic;text-align:center;writing-mode:lr-tb;text-anchor:middle;clip-rule:nonzero;visibility:visible;isolation:auto;mix-blend-mode:normal;color-interpolation:sRGB;color-interpolation-filters:linearRGB;solid-color:#000000;solid-opacity:1;fill:#000000;fill-opacity:1;fill-rule:nonzero;stroke:none;stroke-width:0.23922867;stroke-linecap:square;stroke-linejoin:miter;stroke-miterlimit:4;stroke-dasharray:none;stroke-dashoffset:0;stroke-opacity:1;color-rendering:auto;image-rendering:auto;shape-rendering:auto;text-rendering:auto" />
  </g>
</svg>
